<svg xmlns="http://www.w3.org/2000/svg" version="1.1" xmlns:xlink="http://www.w3.org/1999/xlink" viewBox="0 0 200 200"><rect width="200" height="200" fill="url('#gradient')"></rect><defs><linearGradient id="gradient" gradientTransform="rotate(45 0.5 0.5)"><stop offset="0%" stop-color="#0fa3f3"></stop><stop offset="100%" stop-color="#b0c2d0"></stop></linearGradient></defs><g><g fill="#1b3855" transform="matrix(3.9889287544848795,0,0,3.9889287544848795,19.720854622067577,128.34571243239208)" stroke="#0e5278" stroke-width="0.4"><path d="M6.69-4.82L4.50-4.82L4.50 0L1.07 0L1.07-14.22L6.75-14.22Q8.38-14.22 9.63-13.62Q10.89-13.02 11.58-11.91Q12.27-10.80 12.27-9.39L12.27-9.39Q12.27-7.31 10.78-6.07Q9.29-4.82 6.69-4.82L6.69-4.82ZM4.50-11.57L4.50-7.47L6.75-7.47Q7.74-7.47 8.27-7.97Q8.79-8.47 8.79-9.38L8.79-9.38Q8.79-10.37 8.25-10.97Q7.71-11.56 6.79-11.57L6.79-11.57L4.50-11.57ZM21.88 0L19.38-5.02L17.52-5.02L17.52 0L14.09 0L14.09-14.22L19.69-14.22Q22.22-14.22 23.64-13.10Q25.07-11.97 25.07-9.92L25.07-9.92Q25.07-8.44 24.47-7.46Q23.87-6.48 22.59-5.88L22.59-5.88L25.56-0.15L25.56 0L21.88 0ZM17.52-11.57L17.52-7.67L19.69-7.67Q20.66-7.67 21.16-8.18Q21.65-8.69 21.65-9.61Q21.65-10.53 21.15-11.05Q20.65-11.57 19.69-11.57L19.69-11.57L17.52-11.57ZM39.18-7.47L39.18-6.82Q39.18-4.74 38.41-3.13Q37.64-1.53 36.22-0.67Q34.79 0.20 32.98 0.20Q31.16 0.20 29.76-0.64Q28.35-1.47 27.56-3.03Q26.78-4.58 26.74-6.59L26.74-6.59L26.74-7.39Q26.74-9.48 27.50-11.08Q28.27-12.68 29.70-13.54Q31.13-14.41 32.96-14.41L32.96-14.41Q34.77-14.41 36.18-13.55Q37.60-12.70 38.38-11.11Q39.17-9.52 39.18-7.47L39.18-7.47ZM35.69-6.76L35.69-7.41Q35.69-9.53 34.99-10.63Q34.28-11.73 32.96-11.73L32.96-11.73Q30.38-11.73 30.23-7.86L30.23-7.86L30.22-6.82Q30.22-4.73 30.92-3.60Q31.61-2.48 32.98-2.48L32.98-2.48Q34.28-2.48 34.98-3.58Q35.68-4.69 35.69-6.76L35.69-6.76Z"></path></g></g></svg>